<?xml version="1.0" encoding="UTF-8"?>
<svg width="156px" height="157px" viewBox="0 0 156 157" version="1.1" xmlns="http://www.w3.org/2000/svg" xmlns:xlink="http://www.w3.org/1999/xlink">
    <!-- Generator: Sketch 57.1 (83088) - https://sketch.com -->
    <title>favicon-reverse-grey</title>
    <desc>Created with Sketch.</desc>
    <g id="Local-Build-Plugin" stroke="none" stroke-width="1" fill="none" fill-rule="evenodd">
        <g id="favicon" transform="translate(-169.000000, -324.000000)">
            <g id="local-build/full" transform="translate(169.000000, 324.000000)">
                <g id="basic/bg" fill="#373F51" fill-rule="nonzero">
                    <polygon id="bg" points="77.6133186 2 153.239376 78.1328125 77.6133186 154.265625 1.98726115 78.1328125"></polygon>
                </g>
                <g id="local-build/favicon" fill="#FFFFFF">
                    <path d="M119.640232,44.3882923 C120.416337,43.6072437 121.674652,43.6072437 122.450757,44.3882923 L122.450757,44.3882923 L154.45836,76.5997654 C155.234466,77.380814 155.234466,78.647144 154.45836,79.4281925 L154.45836,79.4281925 L78.9254825,155.442172 C78.1493772,156.22322 76.891062,156.22322 76.1149568,155.442172 L76.1149568,155.442172 L0.582078929,79.4281925 C-0.19402631,78.647144 -0.19402631,77.380814 0.582078929,76.5997654 L0.582078929,76.5997654 L31.4886118,45.4963757 C32.264717,44.7153271 33.5230322,44.7153271 34.2991374,45.4963757 C35.0752427,46.2774243 35.0752427,47.5437542 34.2991374,48.3248028 L34.2991374,48.3248028 L4.79786746,78.013979 L77.5202196,151.199531 L150.242572,78.013979 L119.640232,47.2167194 C118.864126,46.4356708 118.864126,45.1693409 119.640232,44.3882923 Z M76.1149568,0.585786438 C76.891062,-0.195262146 78.1493772,-0.195262146 78.9254825,0.585786438 L78.9254825,0.585786438 L104.547214,26.3707142 C105.32332,27.1517628 105.32332,28.4180927 104.547214,29.1991413 C103.771109,29.9801899 102.512794,29.9801899 101.736689,29.1991413 L101.736689,29.1991413 L77.5202196,4.82842712 L52.7538571,29.7525372 C51.9777518,30.5335858 50.7194366,30.5335858 49.9433314,29.7525372 C49.1672262,28.9714886 49.1672262,27.7051586 49.9433314,26.9241101 L49.9433314,26.9241101 Z" id="Combined-Shape" fill-rule="nonzero"></path>
                    <text id="Local" font-family="ComicSansMS, Comic Sans MS" font-size="44" font-weight="normal" letter-spacing="0.111466682">
                        <tspan x="23.8758823" y="92.513979">Local</tspan>
                    </text>
                    <ellipse id="Oval" fill-rule="nonzero" cx="78.0031646" cy="150" rx="6.9556962" ry="7"></ellipse>
                </g>
            </g>
        </g>
    </g>
</svg>