<?xml version="1.0" encoding="UTF-8"?>
<svg width="156px" height="157px" viewBox="0 0 156 157" version="1.1" xmlns="http://www.w3.org/2000/svg" xmlns:xlink="http://www.w3.org/1999/xlink">
    <!-- Generator: Sketch 57.1 (83088) - https://sketch.com -->
    <title>favicon-grey</title>
    <desc>Created with Sketch.</desc>
    <g id="Local-Build-Plugin" stroke="none" stroke-width="1" fill="none" fill-rule="evenodd">
        <g id="favicon" transform="translate(0.000000, -324.000000)" fill="#373F51">
            <g id="local-build/favicon" transform="translate(0.000000, 324.000000)">
                <path d="M120.402271,44.3882923 C121.18332,43.6072437 122.44965,43.6072437 123.230698,44.3882923 L123.230698,44.3882923 L155.442172,76.5997654 C156.22322,77.380814 156.22322,78.647144 155.442172,79.4281925 L155.442172,79.4281925 L79.4281925,155.442172 C78.647144,156.22322 77.380814,156.22322 76.5997654,155.442172 L76.5997654,155.442172 L0.585786438,79.4281925 C-0.195262146,78.647144 -0.195262146,77.380814 0.585786438,76.5997654 L0.585786438,76.5997654 L31.6891762,45.4963757 C32.4702247,44.7153271 33.7365547,44.7153271 34.5176033,45.4963757 C35.2986519,46.2774243 35.2986519,47.5437542 34.5176033,48.3248028 L34.5176033,48.3248028 L4.82842712,78.013979 L78.013979,151.199531 L151.199531,78.013979 L120.402271,47.2167194 C119.621223,46.4356708 119.621223,45.1693409 120.402271,44.3882923 Z M76.5997654,0.585786438 C77.380814,-0.195262146 78.647144,-0.195262146 79.4281925,0.585786438 L79.4281925,0.585786438 L105.21312,26.3707142 C105.994169,27.1517628 105.994169,28.4180927 105.21312,29.1991413 C104.432072,29.9801899 103.165742,29.9801899 102.384693,29.1991413 L102.384693,29.1991413 L78.013979,4.82842712 L53.0898689,29.7525372 C52.3088203,30.5335858 51.0424904,30.5335858 50.2614418,29.7525372 C49.4803932,28.9714886 49.4803932,27.7051586 50.2614418,26.9241101 L50.2614418,26.9241101 Z" id="Combined-Shape" fill-rule="nonzero"></path>
                <text id="Local" font-family="ComicSansMS, Comic Sans MS" font-size="44" font-weight="normal" letter-spacing="0.111466682">
                    <tspan x="24.027958" y="92.513979">Local</tspan>
                </text>
                <circle id="Oval" fill-rule="nonzero" cx="78.5" cy="150" r="7"></circle>
            </g>
        </g>
    </g>
</svg>